<svg id="visual" viewBox="0 0 1980 1080" width="1980" height="1080" xmlns="http://www.w3.org/2000/svg" xmlns:xlink="http://www.w3.org/1999/xlink" version="1.1"><g stroke-width="1" stroke-linejoin="bevel"><path d="M939 496L967 432L923 385Z" fill="#080818" stroke="#080818"></path><path d="M923 385L762 468L939 496Z" fill="#161722" stroke="#161722"></path><path d="M762 468L836 567L939 496Z" fill="#272834" stroke="#272834"></path><path d="M894 363L762 468L923 385Z" fill="#3f3f4c" stroke="#3f3f4c"></path><path d="M894 363L776 373L762 468Z" fill="#2d2d3a" stroke="#2d2d3a"></path><path d="M967 432L976 296L923 385Z" fill="#333340" stroke="#333340"></path><path d="M923 385L976 296L894 363Z" fill="#2d2d3a" stroke="#2d2d3a"></path><path d="M894 363L830 253L776 373Z" fill="#393946" stroke="#393946"></path><path d="M976 296L830 253L894 363Z" fill="#2d2d3a" stroke="#2d2d3a"></path><path d="M1074 581L1109 396L967 432Z" fill="#21222e" stroke="#21222e"></path><path d="M967 432L1109 396L976 296Z" fill="#3f3f4c" stroke="#3f3f4c"></path><path d="M1074 581L967 432L939 496Z" fill="#080818" stroke="#080818"></path><path d="M691 289L701 400L776 373Z" fill="#333340" stroke="#333340"></path><path d="M776 373L701 400L762 468Z" fill="#161722" stroke="#161722"></path><path d="M771 713L886 661L836 567Z" fill="#10111d" stroke="#10111d"></path><path d="M836 567L972 647L939 496Z" fill="#000000" stroke="#000000"></path><path d="M1051 621L1074 581L939 496Z" fill="#161722" stroke="#161722"></path><path d="M719 589L836 567L762 468Z" fill="#080818" stroke="#080818"></path><path d="M836 567L886 661L972 647Z" fill="#000000" stroke="#000000"></path><path d="M972 647L1051 621L939 496Z" fill="#000000" stroke="#000000"></path><path d="M621 589L719 589L762 468Z" fill="#333340" stroke="#333340"></path><path d="M1129 309L1013 223L976 296Z" fill="#10111d" stroke="#10111d"></path><path d="M976 296L946 144L830 253Z" fill="#21222e" stroke="#21222e"></path><path d="M839 135L770 234L830 253Z" fill="#3f3f4c" stroke="#3f3f4c"></path><path d="M830 253L770 234L776 373Z" fill="#272834" stroke="#272834"></path><path d="M1208 377L1129 309L1109 396Z" fill="#3f3f4c" stroke="#3f3f4c"></path><path d="M1109 396L1129 309L976 296Z" fill="#161722" stroke="#161722"></path><path d="M770 234L691 289L776 373Z" fill="#3f3f4c" stroke="#3f3f4c"></path><path d="M646 661L724 651L719 589Z" fill="#21222e" stroke="#21222e"></path><path d="M719 589L724 651L836 567Z" fill="#080818" stroke="#080818"></path><path d="M886 661L1012 709L972 647Z" fill="#10111d" stroke="#10111d"></path><path d="M972 647L1012 709L1051 621Z" fill="#272834" stroke="#272834"></path><path d="M1244 616L1187 542L1074 581Z" fill="#333340" stroke="#333340"></path><path d="M978 814L1012 709L886 661Z" fill="#161722" stroke="#161722"></path><path d="M771 713L837 725L886 661Z" fill="#10111d" stroke="#10111d"></path><path d="M1244 616L1074 581L1051 621Z" fill="#3f3f4c" stroke="#3f3f4c"></path><path d="M1074 581L1187 542L1109 396Z" fill="#2d2d3a" stroke="#2d2d3a"></path><path d="M724 651L771 713L836 567Z" fill="#21222e" stroke="#21222e"></path><path d="M1072 174L946 144L1013 223Z" fill="#000000" stroke="#000000"></path><path d="M1013 223L946 144L976 296Z" fill="#3f3f4c" stroke="#3f3f4c"></path><path d="M1218 400L1208 377L1109 396Z" fill="#000000" stroke="#000000"></path><path d="M1129 309L1072 174L1013 223Z" fill="#161722" stroke="#161722"></path><path d="M1187 542L1218 400L1109 396Z" fill="#393946" stroke="#393946"></path><path d="M1084 150L1072 174L1158 112Z" fill="#393946" stroke="#393946"></path><path d="M946 144L839 135L830 253Z" fill="#2d2d3a" stroke="#2d2d3a"></path><path d="M770 234L693 163L691 289Z" fill="#272834" stroke="#272834"></path><path d="M594 325L593 401L701 400Z" fill="#2d2d3a" stroke="#2d2d3a"></path><path d="M701 400L621 589L762 468Z" fill="#10111d" stroke="#10111d"></path><path d="M593 401L621 589L701 400Z" fill="#000000" stroke="#000000"></path><path d="M724 651L646 661L771 713Z" fill="#10111d" stroke="#10111d"></path><path d="M581 189L594 325L691 289Z" fill="#21222e" stroke="#21222e"></path><path d="M691 289L594 325L701 400Z" fill="#1b1c28" stroke="#1b1c28"></path><path d="M621 589L646 661L719 589Z" fill="#2d2d3a" stroke="#2d2d3a"></path><path d="M1260 248L1072 174L1129 309Z" fill="#3f3f4c" stroke="#3f3f4c"></path><path d="M1072 174L1084 150L946 144Z" fill="#21222e" stroke="#21222e"></path><path d="M769 0L764 131L839 135Z" fill="#080818" stroke="#080818"></path><path d="M839 135L764 131L770 234Z" fill="#2d2d3a" stroke="#2d2d3a"></path><path d="M764 131L693 163L770 234Z" fill="#161722" stroke="#161722"></path><path d="M1055 811L1107 744L1012 709Z" fill="#272834" stroke="#272834"></path><path d="M1012 709L1107 744L1051 621Z" fill="#161722" stroke="#161722"></path><path d="M1218 400L1267 377L1208 377Z" fill="#10111d" stroke="#10111d"></path><path d="M1208 377L1260 248L1129 309Z" fill="#21222e" stroke="#21222e"></path><path d="M1300 411L1267 377L1218 400Z" fill="#3f3f4c" stroke="#3f3f4c"></path><path d="M1300 411L1218 400L1187 542Z" fill="#393946" stroke="#393946"></path><path d="M434 388L546 516L593 401Z" fill="#1b1c28" stroke="#1b1c28"></path><path d="M593 401L546 516L621 589Z" fill="#21222e" stroke="#21222e"></path><path d="M621 589L542 624L646 661Z" fill="#3f3f4c" stroke="#3f3f4c"></path><path d="M880 893L978 814L837 725Z" fill="#393946" stroke="#393946"></path><path d="M837 725L978 814L886 661Z" fill="#161722" stroke="#161722"></path><path d="M880 893L837 725L735 912Z" fill="#2d2d3a" stroke="#2d2d3a"></path><path d="M1107 744L1244 616L1051 621Z" fill="#272834" stroke="#272834"></path><path d="M1339 581L1300 411L1187 542Z" fill="#3f3f4c" stroke="#3f3f4c"></path><path d="M1267 377L1260 248L1208 377Z" fill="#3f3f4c" stroke="#3f3f4c"></path><path d="M769 0L691 113L764 131Z" fill="#3f3f4c" stroke="#3f3f4c"></path><path d="M764 131L691 113L693 163Z" fill="#1b1c28" stroke="#1b1c28"></path><path d="M693 163L581 189L691 289Z" fill="#3f3f4c" stroke="#3f3f4c"></path><path d="M854 0L839 135L946 144Z" fill="#393946" stroke="#393946"></path><path d="M978 814L1055 811L1012 709Z" fill="#21222e" stroke="#21222e"></path><path d="M1304 751L1302 639L1244 616Z" fill="#1b1c28" stroke="#1b1c28"></path><path d="M1447 377L1260 248L1267 377Z" fill="#2d2d3a" stroke="#2d2d3a"></path><path d="M546 516L542 624L621 589Z" fill="#2d2d3a" stroke="#2d2d3a"></path><path d="M646 661L635 782L771 713Z" fill="#1b1c28" stroke="#1b1c28"></path><path d="M691 113L581 189L693 163Z" fill="#393946" stroke="#393946"></path><path d="M376 501L479 592L546 516Z" fill="#333340" stroke="#333340"></path><path d="M1260 248L1158 112L1072 174Z" fill="#161722" stroke="#161722"></path><path d="M1047 0L945 0L946 144Z" fill="#000000" stroke="#000000"></path><path d="M542 624L635 782L646 661Z" fill="#2d2d3a" stroke="#2d2d3a"></path><path d="M1244 800L1244 616L1107 744Z" fill="#21222e" stroke="#21222e"></path><path d="M1244 616L1339 581L1187 542Z" fill="#161722" stroke="#161722"></path><path d="M1452 215L1280 205L1260 248Z" fill="#393946" stroke="#393946"></path><path d="M1260 248L1280 205L1158 112Z" fill="#10111d" stroke="#10111d"></path><path d="M1047 0L946 144L1084 150Z" fill="#10111d" stroke="#10111d"></path><path d="M945 0L854 0L946 144Z" fill="#10111d" stroke="#10111d"></path><path d="M691 113L575 98L581 189Z" fill="#161722" stroke="#161722"></path><path d="M735 912L837 725L771 713Z" fill="#393946" stroke="#393946"></path><path d="M978 814L951 993L1055 811Z" fill="#393946" stroke="#393946"></path><path d="M449 321L593 401L594 325Z" fill="#000000" stroke="#000000"></path><path d="M546 516L479 592L542 624Z" fill="#1b1c28" stroke="#1b1c28"></path><path d="M542 624L482 663L635 782Z" fill="#3f3f4c" stroke="#3f3f4c"></path><path d="M1302 639L1339 581L1244 616Z" fill="#2d2d3a" stroke="#2d2d3a"></path><path d="M1300 411L1447 377L1267 377Z" fill="#10111d" stroke="#10111d"></path><path d="M854 0L769 0L839 135Z" fill="#10111d" stroke="#10111d"></path><path d="M1158 112L1047 0L1084 150Z" fill="#333340" stroke="#333340"></path><path d="M1235 0L1047 0L1158 112Z" fill="#10111d" stroke="#10111d"></path><path d="M466 261L594 325L581 189Z" fill="#272834" stroke="#272834"></path><path d="M466 261L449 321L594 325Z" fill="#161722" stroke="#161722"></path><path d="M449 321L434 388L593 401Z" fill="#272834" stroke="#272834"></path><path d="M486 143L466 261L581 189Z" fill="#1b1c28" stroke="#1b1c28"></path><path d="M358 702L482 663L479 592Z" fill="#21222e" stroke="#21222e"></path><path d="M479 592L482 663L542 624Z" fill="#10111d" stroke="#10111d"></path><path d="M656 0L575 98L691 113Z" fill="#21222e" stroke="#21222e"></path><path d="M1245 856L1107 744L1055 811Z" fill="#272834" stroke="#272834"></path><path d="M1245 856L1244 800L1107 744Z" fill="#080818" stroke="#080818"></path><path d="M1302 639L1456 600L1339 581Z" fill="#1b1c28" stroke="#1b1c28"></path><path d="M627 917L735 912L635 782Z" fill="#21222e" stroke="#21222e"></path><path d="M635 782L735 912L771 713Z" fill="#2d2d3a" stroke="#2d2d3a"></path><path d="M1244 800L1304 751L1244 616Z" fill="#2d2d3a" stroke="#2d2d3a"></path><path d="M769 0L656 0L691 113Z" fill="#393946" stroke="#393946"></path><path d="M1402 127L1266 78L1280 205Z" fill="#2d2d3a" stroke="#2d2d3a"></path><path d="M1280 205L1266 78L1158 112Z" fill="#080818" stroke="#080818"></path><path d="M511 0L486 143L575 98Z" fill="#1b1c28" stroke="#1b1c28"></path><path d="M575 98L486 143L581 189Z" fill="#161722" stroke="#161722"></path><path d="M300 333L434 388L449 321Z" fill="#080818" stroke="#080818"></path><path d="M358 427L376 501L434 388Z" fill="#1b1c28" stroke="#1b1c28"></path><path d="M1438 528L1300 411L1339 581Z" fill="#333340" stroke="#333340"></path><path d="M1438 528L1434 429L1300 411Z" fill="#3f3f4c" stroke="#3f3f4c"></path><path d="M692 953L765 957L735 912Z" fill="#161722" stroke="#161722"></path><path d="M735 912L765 957L880 893Z" fill="#10111d" stroke="#10111d"></path><path d="M1132 978L1245 856L1055 811Z" fill="#10111d" stroke="#10111d"></path><path d="M1244 800L1270 877L1304 751Z" fill="#272834" stroke="#272834"></path><path d="M951 993L978 814L880 893Z" fill="#393946" stroke="#393946"></path><path d="M358 427L434 388L300 333Z" fill="#21222e" stroke="#21222e"></path><path d="M434 388L376 501L546 516Z" fill="#272834" stroke="#272834"></path><path d="M1456 600L1302 639L1304 751Z" fill="#10111d" stroke="#10111d"></path><path d="M1456 600L1438 528L1339 581Z" fill="#272834" stroke="#272834"></path><path d="M391 798L497 801L482 663Z" fill="#080818" stroke="#080818"></path><path d="M482 663L497 801L635 782Z" fill="#10111d" stroke="#10111d"></path><path d="M1506 445L1447 377L1434 429Z" fill="#1b1c28" stroke="#1b1c28"></path><path d="M1434 429L1447 377L1300 411Z" fill="#1b1c28" stroke="#1b1c28"></path><path d="M300 333L449 321L466 261Z" fill="#21222e" stroke="#21222e"></path><path d="M497 801L549 861L635 782Z" fill="#161722" stroke="#161722"></path><path d="M549 861L627 917L635 782Z" fill="#21222e" stroke="#21222e"></path><path d="M884 1007L951 993L880 893Z" fill="#2d2d3a" stroke="#2d2d3a"></path><path d="M1329 0L1235 0L1266 78Z" fill="#000000" stroke="#000000"></path><path d="M1266 78L1235 0L1158 112Z" fill="#000000" stroke="#000000"></path><path d="M627 917L692 953L735 912Z" fill="#1b1c28" stroke="#1b1c28"></path><path d="M765 957L884 1007L880 893Z" fill="#161722" stroke="#161722"></path><path d="M868 1080L884 1007L754 1080Z" fill="#333340" stroke="#333340"></path><path d="M1132 978L1270 877L1245 856Z" fill="#2d2d3a" stroke="#2d2d3a"></path><path d="M1245 856L1270 877L1244 800Z" fill="#10111d" stroke="#10111d"></path><path d="M1489 772L1456 600L1304 751Z" fill="#2d2d3a" stroke="#2d2d3a"></path><path d="M1438 528L1506 445L1434 429Z" fill="#000000" stroke="#000000"></path><path d="M1000 1080L1132 978L951 993Z" fill="#3f3f4c" stroke="#3f3f4c"></path><path d="M951 993L1132 978L1055 811Z" fill="#2d2d3a" stroke="#2d2d3a"></path><path d="M1452 215L1402 127L1280 205Z" fill="#272834" stroke="#272834"></path><path d="M1447 377L1452 215L1260 248Z" fill="#21222e" stroke="#21222e"></path><path d="M1495 167L1452 215L1571 338Z" fill="#10111d" stroke="#10111d"></path><path d="M656 0L511 0L575 98Z" fill="#10111d" stroke="#10111d"></path><path d="M323 165L300 333L466 261Z" fill="#393946" stroke="#393946"></path><path d="M1496 570L1506 445L1438 528Z" fill="#3f3f4c" stroke="#3f3f4c"></path><path d="M1571 692L1496 570L1456 600Z" fill="#161722" stroke="#161722"></path><path d="M1456 600L1496 570L1438 528Z" fill="#272834" stroke="#272834"></path><path d="M376 501L358 702L479 592Z" fill="#10111d" stroke="#10111d"></path><path d="M420 895L576 954L549 861Z" fill="#2d2d3a" stroke="#2d2d3a"></path><path d="M326 701L358 702L273 592Z" fill="#000000" stroke="#000000"></path><path d="M627 917L576 954L692 953Z" fill="#10111d" stroke="#10111d"></path><path d="M754 1080L884 1007L765 957Z" fill="#161722" stroke="#161722"></path><path d="M549 861L576 954L627 917Z" fill="#080818" stroke="#080818"></path><path d="M420 895L549 861L497 801Z" fill="#1b1c28" stroke="#1b1c28"></path><path d="M1402 127L1329 0L1266 78Z" fill="#2d2d3a" stroke="#2d2d3a"></path><path d="M323 165L466 261L486 143Z" fill="#2d2d3a" stroke="#2d2d3a"></path><path d="M273 592L358 702L376 501Z" fill="#161722" stroke="#161722"></path><path d="M358 702L391 798L482 663Z" fill="#080818" stroke="#080818"></path><path d="M273 592L376 501L228 453Z" fill="#393946" stroke="#393946"></path><path d="M358 702L326 701L391 798Z" fill="#10111d" stroke="#10111d"></path><path d="M754 1080L765 957L692 953Z" fill="#2d2d3a" stroke="#2d2d3a"></path><path d="M884 1007L868 1080L951 993Z" fill="#000000" stroke="#000000"></path><path d="M1411 919L1424 820L1270 877Z" fill="#000000" stroke="#000000"></path><path d="M1270 877L1424 820L1304 751Z" fill="#080818" stroke="#080818"></path><path d="M868 1080L1000 1080L951 993Z" fill="#2d2d3a" stroke="#2d2d3a"></path><path d="M1132 978L1224 1014L1270 877Z" fill="#393946" stroke="#393946"></path><path d="M325 109L323 165L486 143Z" fill="#2d2d3a" stroke="#2d2d3a"></path><path d="M1452 215L1495 167L1402 127Z" fill="#080818" stroke="#080818"></path><path d="M1402 127L1452 0L1329 0Z" fill="#10111d" stroke="#10111d"></path><path d="M1571 338L1452 215L1447 377Z" fill="#161722" stroke="#161722"></path><path d="M228 453L376 501L358 427Z" fill="#21222e" stroke="#21222e"></path><path d="M1168 1080L1224 1014L1132 978Z" fill="#393946" stroke="#393946"></path><path d="M652 1080L754 1080L692 953Z" fill="#21222e" stroke="#21222e"></path><path d="M1424 820L1464 797L1304 751Z" fill="#161722" stroke="#161722"></path><path d="M1500 840L1464 797L1424 820Z" fill="#3f3f4c" stroke="#3f3f4c"></path><path d="M350 877L391 798L326 701Z" fill="#080818" stroke="#080818"></path><path d="M350 877L420 895L391 798Z" fill="#3f3f4c" stroke="#3f3f4c"></path><path d="M391 798L420 895L497 801Z" fill="#3f3f4c" stroke="#3f3f4c"></path><path d="M576 954L652 1080L692 953Z" fill="#000000" stroke="#000000"></path><path d="M1000 1080L1111 1080L1132 978Z" fill="#393946" stroke="#393946"></path><path d="M1464 797L1489 772L1304 751Z" fill="#3f3f4c" stroke="#3f3f4c"></path><path d="M1622 400L1571 338L1506 445Z" fill="#1b1c28" stroke="#1b1c28"></path><path d="M393 0L325 109L486 143Z" fill="#333340" stroke="#333340"></path><path d="M196 277L228 453L300 333Z" fill="#10111d" stroke="#10111d"></path><path d="M1506 445L1571 338L1447 377Z" fill="#393946" stroke="#393946"></path><path d="M1622 400L1506 445L1684 547Z" fill="#333340" stroke="#333340"></path><path d="M300 333L228 453L358 427Z" fill="#333340" stroke="#333340"></path><path d="M196 277L300 333L323 165Z" fill="#2d2d3a" stroke="#2d2d3a"></path><path d="M511 0L393 0L486 143Z" fill="#161722" stroke="#161722"></path><path d="M80 572L252 639L273 592Z" fill="#000000" stroke="#000000"></path><path d="M273 592L252 639L326 701Z" fill="#161722" stroke="#161722"></path><path d="M505 1080L652 1080L576 954Z" fill="#333340" stroke="#333340"></path><path d="M1111 1080L1168 1080L1132 978Z" fill="#272834" stroke="#272834"></path><path d="M1332 999L1411 919L1270 877Z" fill="#000000" stroke="#000000"></path><path d="M1332 999L1270 877L1224 1014Z" fill="#393946" stroke="#393946"></path><path d="M1464 797L1500 840L1489 772Z" fill="#1b1c28" stroke="#1b1c28"></path><path d="M1296 1080L1332 999L1224 1014Z" fill="#1b1c28" stroke="#1b1c28"></path><path d="M1685 214L1523 110L1495 167Z" fill="#333340" stroke="#333340"></path><path d="M1495 167L1523 110L1402 127Z" fill="#10111d" stroke="#10111d"></path><path d="M1523 110L1452 0L1402 127Z" fill="#161722" stroke="#161722"></path><path d="M223 873L350 877L326 701Z" fill="#393946" stroke="#393946"></path><path d="M420 895L393 950L576 954Z" fill="#1b1c28" stroke="#1b1c28"></path><path d="M1632 758L1571 692L1489 772Z" fill="#333340" stroke="#333340"></path><path d="M1489 772L1571 692L1456 600Z" fill="#333340" stroke="#333340"></path><path d="M1534 931L1500 840L1411 919Z" fill="#272834" stroke="#272834"></path><path d="M1411 919L1500 840L1424 820Z" fill="#10111d" stroke="#10111d"></path><path d="M1645 594L1506 445L1496 570Z" fill="#10111d" stroke="#10111d"></path><path d="M1571 338L1685 214L1495 167Z" fill="#080818" stroke="#080818"></path><path d="M350 877L393 950L420 895Z" fill="#080818" stroke="#080818"></path><path d="M263 73L323 165L325 109Z" fill="#161722" stroke="#161722"></path><path d="M178 206L196 277L323 165Z" fill="#21222e" stroke="#21222e"></path><path d="M56 648L217 714L252 639Z" fill="#272834" stroke="#272834"></path><path d="M252 639L217 714L326 701Z" fill="#3f3f4c" stroke="#3f3f4c"></path><path d="M350 877L322 962L393 950Z" fill="#080818" stroke="#080818"></path><path d="M80 572L273 592L228 453Z" fill="#161722" stroke="#161722"></path><path d="M297 0L263 73L325 109Z" fill="#2d2d3a" stroke="#2d2d3a"></path><path d="M1168 1080L1296 1080L1224 1014Z" fill="#3f3f4c" stroke="#3f3f4c"></path><path d="M1489 1080L1534 931L1411 919Z" fill="#161722" stroke="#161722"></path><path d="M393 950L505 1080L576 954Z" fill="#080818" stroke="#080818"></path><path d="M1632 758L1645 594L1571 692Z" fill="#21222e" stroke="#21222e"></path><path d="M1571 692L1645 594L1496 570Z" fill="#1b1c28" stroke="#1b1c28"></path><path d="M393 0L297 0L325 109Z" fill="#272834" stroke="#272834"></path><path d="M1715 474L1655 339L1622 400Z" fill="#080818" stroke="#080818"></path><path d="M1622 400L1655 339L1571 338Z" fill="#080818" stroke="#080818"></path><path d="M1523 110L1521 0L1452 0Z" fill="#080818" stroke="#080818"></path><path d="M1603 0L1521 0L1523 110Z" fill="#161722" stroke="#161722"></path><path d="M263 73L178 206L323 165Z" fill="#333340" stroke="#333340"></path><path d="M196 277L112 330L228 453Z" fill="#3f3f4c" stroke="#3f3f4c"></path><path d="M131 68L178 206L263 73Z" fill="#2d2d3a" stroke="#2d2d3a"></path><path d="M223 873L322 962L350 877Z" fill="#10111d" stroke="#10111d"></path><path d="M393 950L413 1080L505 1080Z" fill="#10111d" stroke="#10111d"></path><path d="M1645 594L1684 547L1506 445Z" fill="#2d2d3a" stroke="#2d2d3a"></path><path d="M1735 537L1684 547L1800 636Z" fill="#393946" stroke="#393946"></path><path d="M1662 833L1632 758L1500 840Z" fill="#333340" stroke="#333340"></path><path d="M1500 840L1632 758L1489 772Z" fill="#2d2d3a" stroke="#2d2d3a"></path><path d="M1411 1080L1411 919L1332 999Z" fill="#000000" stroke="#000000"></path><path d="M104 198L112 330L196 277Z" fill="#3f3f4c" stroke="#3f3f4c"></path><path d="M322 962L413 1080L393 950Z" fill="#393946" stroke="#393946"></path><path d="M217 714L223 873L326 701Z" fill="#272834" stroke="#272834"></path><path d="M322 962L295 1080L413 1080Z" fill="#161722" stroke="#161722"></path><path d="M136 788L223 873L217 714Z" fill="#10111d" stroke="#10111d"></path><path d="M1735 537L1715 474L1684 547Z" fill="#21222e" stroke="#21222e"></path><path d="M1684 547L1715 474L1622 400Z" fill="#1b1c28" stroke="#1b1c28"></path><path d="M1655 339L1685 214L1571 338Z" fill="#21222e" stroke="#21222e"></path><path d="M1773 273L1685 214L1655 339Z" fill="#2d2d3a" stroke="#2d2d3a"></path><path d="M1296 1080L1411 1080L1332 999Z" fill="#2d2d3a" stroke="#2d2d3a"></path><path d="M1695 118L1603 0L1523 110Z" fill="#21222e" stroke="#21222e"></path><path d="M297 0L209 0L263 73Z" fill="#10111d" stroke="#10111d"></path><path d="M178 206L104 198L196 277Z" fill="#000000" stroke="#000000"></path><path d="M1800 636L1684 547L1645 594Z" fill="#21222e" stroke="#21222e"></path><path d="M1779 125L1695 118L1685 214Z" fill="#393946" stroke="#393946"></path><path d="M58 484L80 572L228 453Z" fill="#1b1c28" stroke="#1b1c28"></path><path d="M131 68L104 198L178 206Z" fill="#2d2d3a" stroke="#2d2d3a"></path><path d="M112 330L58 484L228 453Z" fill="#272834" stroke="#272834"></path><path d="M56 648L136 788L217 714Z" fill="#393946" stroke="#393946"></path><path d="M223 873L220 949L322 962Z" fill="#2d2d3a" stroke="#2d2d3a"></path><path d="M1534 931L1662 833L1500 840Z" fill="#333340" stroke="#333340"></path><path d="M1632 758L1800 636L1645 594Z" fill="#21222e" stroke="#21222e"></path><path d="M1639 969L1662 833L1534 931Z" fill="#3f3f4c" stroke="#3f3f4c"></path><path d="M0 441L58 484L112 330Z" fill="#21222e" stroke="#21222e"></path><path d="M1773 273L1655 339L1840 418Z" fill="#161722" stroke="#161722"></path><path d="M1685 214L1695 118L1523 110Z" fill="#21222e" stroke="#21222e"></path><path d="M83 981L220 949L223 873Z" fill="#000000" stroke="#000000"></path><path d="M1411 1080L1489 1080L1411 919Z" fill="#10111d" stroke="#10111d"></path><path d="M209 0L131 68L263 73Z" fill="#2d2d3a" stroke="#2d2d3a"></path><path d="M0 541L56 648L80 572Z" fill="#10111d" stroke="#10111d"></path><path d="M80 572L56 648L252 639Z" fill="#2d2d3a" stroke="#2d2d3a"></path><path d="M136 788L75 825L223 873Z" fill="#21222e" stroke="#21222e"></path><path d="M1803 264L1773 273L1840 418Z" fill="#333340" stroke="#333340"></path><path d="M220 949L295 1080L322 962Z" fill="#000000" stroke="#000000"></path><path d="M1489 1080L1639 969L1534 931Z" fill="#1b1c28" stroke="#1b1c28"></path><path d="M1809 775L1800 636L1632 758Z" fill="#2d2d3a" stroke="#2d2d3a"></path><path d="M209 0L120 0L131 68Z" fill="#000000" stroke="#000000"></path><path d="M0 97L0 171L104 198Z" fill="#393946" stroke="#393946"></path><path d="M0 359L0 441L112 330Z" fill="#2d2d3a" stroke="#2d2d3a"></path><path d="M0 359L112 330L104 198Z" fill="#10111d" stroke="#10111d"></path><path d="M58 484L0 541L80 572Z" fill="#21222e" stroke="#21222e"></path><path d="M0 171L0 359L104 198Z" fill="#1b1c28" stroke="#1b1c28"></path><path d="M0 441L0 541L58 484Z" fill="#1b1c28" stroke="#1b1c28"></path><path d="M1809 775L1632 758L1662 833Z" fill="#080818" stroke="#080818"></path><path d="M1840 418L1655 339L1715 474Z" fill="#000000" stroke="#000000"></path><path d="M1840 418L1715 474L1843 540Z" fill="#2d2d3a" stroke="#2d2d3a"></path><path d="M1773 273L1779 125L1685 214Z" fill="#080818" stroke="#080818"></path><path d="M0 755L75 825L136 788Z" fill="#1b1c28" stroke="#1b1c28"></path><path d="M220 949L206 1080L295 1080Z" fill="#393946" stroke="#393946"></path><path d="M0 755L136 788L56 648Z" fill="#272834" stroke="#272834"></path><path d="M1803 264L1779 125L1773 273Z" fill="#080818" stroke="#080818"></path><path d="M1695 118L1729 0L1603 0Z" fill="#272834" stroke="#272834"></path><path d="M1843 540L1715 474L1735 537Z" fill="#161722" stroke="#161722"></path><path d="M1803 264L1912 197L1779 125Z" fill="#10111d" stroke="#10111d"></path><path d="M1779 125L1729 0L1695 118Z" fill="#000000" stroke="#000000"></path><path d="M0 541L0 687L56 648Z" fill="#1b1c28" stroke="#1b1c28"></path><path d="M1800 636L1843 540L1735 537Z" fill="#21222e" stroke="#21222e"></path><path d="M83 981L223 873L75 825Z" fill="#080818" stroke="#080818"></path><path d="M83 981L206 1080L220 949Z" fill="#1b1c28" stroke="#1b1c28"></path><path d="M0 97L104 198L131 68Z" fill="#393946" stroke="#393946"></path><path d="M0 687L0 755L56 648Z" fill="#080818" stroke="#080818"></path><path d="M1788 893L1809 775L1662 833Z" fill="#21222e" stroke="#21222e"></path><path d="M1800 636L1859 657L1843 540Z" fill="#080818" stroke="#080818"></path><path d="M0 0L0 97L131 68Z" fill="#2d2d3a" stroke="#2d2d3a"></path><path d="M1844 737L1859 657L1800 636Z" fill="#1b1c28" stroke="#1b1c28"></path><path d="M1980 479L1918 356L1840 418Z" fill="#10111d" stroke="#10111d"></path><path d="M1489 1080L1651 1080L1639 969Z" fill="#3f3f4c" stroke="#3f3f4c"></path><path d="M1639 969L1788 893L1662 833Z" fill="#161722" stroke="#161722"></path><path d="M1980 852L1844 737L1809 775Z" fill="#21222e" stroke="#21222e"></path><path d="M1809 775L1844 737L1800 636Z" fill="#161722" stroke="#161722"></path><path d="M0 899L83 981L75 825Z" fill="#393946" stroke="#393946"></path><path d="M1792 1002L1788 893L1639 969Z" fill="#21222e" stroke="#21222e"></path><path d="M120 0L0 0L131 68Z" fill="#272834" stroke="#272834"></path><path d="M1980 479L1843 540L1980 532Z" fill="#161722" stroke="#161722"></path><path d="M1980 479L1840 418L1843 540Z" fill="#1b1c28" stroke="#1b1c28"></path><path d="M1840 418L1918 356L1803 264Z" fill="#333340" stroke="#333340"></path><path d="M1779 125L1823 0L1729 0Z" fill="#333340" stroke="#333340"></path><path d="M0 755L0 899L75 825Z" fill="#3f3f4c" stroke="#3f3f4c"></path><path d="M1919 71L1823 0L1779 125Z" fill="#272834" stroke="#272834"></path><path d="M0 1080L97 1080L83 981Z" fill="#272834" stroke="#272834"></path><path d="M83 981L97 1080L206 1080Z" fill="#333340" stroke="#333340"></path><path d="M0 899L0 937L83 981Z" fill="#080818" stroke="#080818"></path><path d="M1918 356L1912 197L1803 264Z" fill="#21222e" stroke="#21222e"></path><path d="M1788 893L1836 903L1809 775Z" fill="#21222e" stroke="#21222e"></path><path d="M1980 532L1843 540L1859 657Z" fill="#393946" stroke="#393946"></path><path d="M1792 1002L1836 903L1788 893Z" fill="#1b1c28" stroke="#1b1c28"></path><path d="M1753 1080L1792 1002L1639 969Z" fill="#161722" stroke="#161722"></path><path d="M1651 1080L1753 1080L1639 969Z" fill="#393946" stroke="#393946"></path><path d="M1980 532L1859 657L1980 684Z" fill="#1b1c28" stroke="#1b1c28"></path><path d="M1918 356L1980 222L1912 197Z" fill="#393946" stroke="#393946"></path><path d="M1980 684L1859 657L1844 737Z" fill="#000000" stroke="#000000"></path><path d="M1980 479L1980 341L1918 356Z" fill="#161722" stroke="#161722"></path><path d="M1912 197L1919 71L1779 125Z" fill="#272834" stroke="#272834"></path><path d="M1980 124L1919 71L1912 197Z" fill="#2d2d3a" stroke="#2d2d3a"></path><path d="M1980 341L1980 222L1918 356Z" fill="#2d2d3a" stroke="#2d2d3a"></path><path d="M1980 738L1844 737L1980 852Z" fill="#1b1c28" stroke="#1b1c28"></path><path d="M1980 738L1980 684L1844 737Z" fill="#080818" stroke="#080818"></path><path d="M1809 775L1836 903L1980 852Z" fill="#10111d" stroke="#10111d"></path><path d="M0 937L0 1080L83 981Z" fill="#1b1c28" stroke="#1b1c28"></path><path d="M1893 971L1836 903L1792 1002Z" fill="#1b1c28" stroke="#1b1c28"></path><path d="M1886 1080L1893 971L1792 1002Z" fill="#161722" stroke="#161722"></path><path d="M1980 222L1980 124L1912 197Z" fill="#2d2d3a" stroke="#2d2d3a"></path><path d="M1893 971L1980 852L1836 903Z" fill="#1b1c28" stroke="#1b1c28"></path><path d="M1980 124L1980 0L1919 71Z" fill="#393946" stroke="#393946"></path><path d="M1919 71L1980 0L1823 0Z" fill="#3f3f4c" stroke="#3f3f4c"></path><path d="M1753 1080L1886 1080L1792 1002Z" fill="#000000" stroke="#000000"></path><path d="M1893 971L1980 1011L1980 852Z" fill="#272834" stroke="#272834"></path><path d="M1886 1080L1980 1011L1893 971Z" fill="#393946" stroke="#393946"></path><path d="M1886 1080L1980 1080L1980 1011Z" fill="#080818" stroke="#080818"></path></g></svg>