<svg id="visual" viewBox="0 0 8000 4800" width="8000" height="4800" xmlns="http://www.w3.org/2000/svg" xmlns:xlink="http://www.w3.org/1999/xlink" version="1.1"><rect x="0" y="0" width="8000" height="4800" fill="#000000"></rect><path d="M0 3070L190.5 3045.8C381 3021.7 762 2973.3 1143 2909.8C1524 2846.3 1905 2767.7 2286 2789.7C2667 2811.7 3048 2934.3 3428.8 2970.3C3809.7 3006.3 4190.3 2955.7 4571.2 2903.2C4952 2850.7 5333 2796.3 5714 2842C6095 2887.7 6476 3033.3 6857 3096.5C7238 3159.7 7619 3140.3 7809.5 3130.7L8000 3121L8000 4801L7809.5 4801C7619 4801 7238 4801 6857 4801C6476 4801 6095 4801 5714 4801C5333 4801 4952 4801 4571.2 4801C4190.3 4801 3809.7 4801 3428.8 4801C3048 4801 2667 4801 2286 4801C1905 4801 1524 4801 1143 4801C762 4801 381 4801 190.5 4801L0 4801Z" fill="#fa7268"></path><path d="M0 2851L190.5 2900.8C381 2950.7 762 3050.3 1143 3149C1524 3247.7 1905 3345.3 2286 3399.8C2667 3454.3 3048 3465.7 3428.8 3400.3C3809.7 3335 4190.3 3193 4571.2 3170.7C4952 3148.3 5333 3245.7 5714 3242.7C6095 3239.7 6476 3136.3 6857 3092.7C7238 3049 7619 3065 7809.5 3073L8000 3081L8000 4801L7809.5 4801C7619 4801 7238 4801 6857 4801C6476 4801 6095 4801 5714 4801C5333 4801 4952 4801 4571.2 4801C4190.3 4801 3809.7 4801 3428.8 4801C3048 4801 2667 4801 2286 4801C1905 4801 1524 4801 1143 4801C762 4801 381 4801 190.5 4801L0 4801Z" fill="#f36567"></path><path d="M0 3342L190.5 3306.2C381 3270.3 762 3198.7 1143 3239C1524 3279.3 1905 3431.7 2286 3494C2667 3556.3 3048 3528.7 3428.8 3524.2C3809.7 3519.7 4190.3 3538.3 4571.2 3499.7C4952 3461 5333 3365 5714 3284.3C6095 3203.7 6476 3138.3 6857 3172.7C7238 3207 7619 3341 7809.5 3408L8000 3475L8000 4801L7809.5 4801C7619 4801 7238 4801 6857 4801C6476 4801 6095 4801 5714 4801C5333 4801 4952 4801 4571.2 4801C4190.3 4801 3809.7 4801 3428.8 4801C3048 4801 2667 4801 2286 4801C1905 4801 1524 4801 1143 4801C762 4801 381 4801 190.5 4801L0 4801Z" fill="#eb5967"></path><path d="M0 3911L190.5 3869C381 3827 762 3743 1143 3745.5C1524 3748 1905 3837 2286 3829.8C2667 3822.7 3048 3719.3 3428.8 3704.7C3809.7 3690 4190.3 3764 4571.2 3774.8C4952 3785.7 5333 3733.3 5714 3720.2C6095 3707 6476 3733 6857 3679.8C7238 3626.7 7619 3494.3 7809.5 3428.2L8000 3362L8000 4801L7809.5 4801C7619 4801 7238 4801 6857 4801C6476 4801 6095 4801 5714 4801C5333 4801 4952 4801 4571.2 4801C4190.3 4801 3809.7 4801 3428.8 4801C3048 4801 2667 4801 2286 4801C1905 4801 1524 4801 1143 4801C762 4801 381 4801 190.5 4801L0 4801Z" fill="#e34c67"></path><path d="M0 3758L190.5 3808.5C381 3859 762 3960 1143 3978.2C1524 3996.3 1905 3931.7 2286 3940C2667 3948.3 3048 4029.7 3428.8 3995.3C3809.7 3961 4190.3 3811 4571.2 3817.3C4952 3823.7 5333 3986.3 5714 4061.5C6095 4136.7 6476 4124.3 6857 4049.8C7238 3975.3 7619 3838.7 7809.5 3770.3L8000 3702L8000 4801L7809.5 4801C7619 4801 7238 4801 6857 4801C6476 4801 6095 4801 5714 4801C5333 4801 4952 4801 4571.2 4801C4190.3 4801 3809.7 4801 3428.8 4801C3048 4801 2667 4801 2286 4801C1905 4801 1524 4801 1143 4801C762 4801 381 4801 190.5 4801L0 4801Z" fill="#da3f67"></path><path d="M0 4203L190.5 4192C381 4181 762 4159 1143 4124.8C1524 4090.7 1905 4044.3 2286 4029.7C2667 4015 3048 4032 3428.8 4054.7C3809.7 4077.3 4190.3 4105.7 4571.2 4100.8C4952 4096 5333 4058 5714 4052.2C6095 4046.3 6476 4072.7 6857 4074.3C7238 4076 7619 4053 7809.5 4041.5L8000 4030L8000 4801L7809.5 4801C7619 4801 7238 4801 6857 4801C6476 4801 6095 4801 5714 4801C5333 4801 4952 4801 4571.2 4801C4190.3 4801 3809.7 4801 3428.8 4801C3048 4801 2667 4801 2286 4801C1905 4801 1524 4801 1143 4801C762 4801 381 4801 190.5 4801L0 4801Z" fill="#d03267"></path><path d="M0 4425L190.5 4453C381 4481 762 4537 1143 4533.7C1524 4530.3 1905 4467.7 2286 4413C2667 4358.3 3048 4311.7 3428.8 4311.8C3809.7 4312 4190.3 4359 4571.2 4367.8C4952 4376.7 5333 4347.3 5714 4347.5C6095 4347.7 6476 4377.3 6857 4377.2C7238 4377 7619 4347 7809.5 4332L8000 4317L8000 4801L7809.5 4801C7619 4801 7238 4801 6857 4801C6476 4801 6095 4801 5714 4801C5333 4801 4952 4801 4571.2 4801C4190.3 4801 3809.7 4801 3428.8 4801C3048 4801 2667 4801 2286 4801C1905 4801 1524 4801 1143 4801C762 4801 381 4801 190.5 4801L0 4801Z" fill="#c62368"></path></svg>